<svg xmlns="http://www.w3.org/2000/svg" viewBox="0 0 546.4 139.01"><defs><style>.cls-1{fill:#088280;}.cls-2{fill:#063340;}.cls-3{fill:#04d010;}.cls-4{fill:green;}.cls-5{fill:#fff;}</style></defs><g id="Layer_2" data-name="Layer 2"><g id="Layer_1-2" data-name="Layer 1"><path class="cls-1" d="M0,66.17H0a59.5,59.5,0,0,0,59.5,59.51h.84A59.94,59.94,0,0,0,0,66.17"/><path class="cls-2" d="M64.93,139h0a59.51,59.51,0,0,0,59.5-59.51v-.83A59.93,59.93,0,0,0,64.93,139"/><path class="cls-3" d="M144,74.5h0A59.5,59.5,0,0,0,84.5,15h-.84A59.93,59.93,0,0,0,144,74.5"/><path class="cls-4" d="M76.16,0h0a59.5,59.5,0,0,0-59.5,59.5v.84A59.93,59.93,0,0,0,76.16,0"/><path class="cls-5" d="M212,75.09H190.77l-3.64,10.33h-8.67l18.13-50.67h9.61l18.13,50.67h-8.74Zm-2.33-6.78L201.4,44.8l-8.3,23.51Z"/><path class="cls-5" d="M256.62,46.51a16,16,0,0,1,5.64,4.62V45.31h8.37V86.08a20.52,20.52,0,0,1-2.33,9.86,16.84,16.84,0,0,1-6.73,6.81,21.17,21.17,0,0,1-10.52,2.47q-8.16,0-13.54-3.82A14.09,14.09,0,0,1,231.39,91h8.23a8.93,8.93,0,0,0,4,5.06A13.72,13.72,0,0,0,251.05,98,11.06,11.06,0,0,0,259.17,95q3.09-3.06,3.09-8.88v-6.7a17.26,17.26,0,0,1-13.91,6.7,18,18,0,0,1-9.57-2.66A18.69,18.69,0,0,1,231.94,76a22.74,22.74,0,0,1-2.51-10.81,22.13,22.13,0,0,1,2.51-10.7,18.31,18.31,0,0,1,16.41-9.83,17.8,17.8,0,0,1,8.27,1.86m3.93,11.61a12,12,0,0,0-4.48-4.66A11.89,11.89,0,0,0,239.65,58a14.35,14.35,0,0,0-1.71,7.17,14.92,14.92,0,0,0,1.71,7.28,12,12,0,0,0,4.52,4.77,11.74,11.74,0,0,0,11.9,0,12,12,0,0,0,4.48-4.7,14.73,14.73,0,0,0,1.71-7.24,14.54,14.54,0,0,0-1.71-7.21"/><path class="cls-5" d="M294.69,46.36a14.35,14.35,0,0,1,7.17-1.71v8.59h-2.11q-4.87,0-7.39,2.48t-2.51,8.59V85.42h-8.3V45.31h8.3v5.82a13.1,13.1,0,0,1,4.84-4.77"/><path class="cls-5" d="M316.64,83.49a18.56,18.56,0,0,1-7.21-7.28,22,22,0,0,1-2.62-10.88,21.51,21.51,0,0,1,2.7-10.85,18.58,18.58,0,0,1,7.35-7.28,22.52,22.52,0,0,1,20.82,0A18.58,18.58,0,0,1,345,54.48a21.51,21.51,0,0,1,2.7,10.85A21.05,21.05,0,0,1,345,76.18a19.17,19.17,0,0,1-7.53,7.31,21.66,21.66,0,0,1-10.52,2.59,20.49,20.49,0,0,1-10.27-2.59m16.27-6.15a11.61,11.61,0,0,0,4.55-4.59,14.65,14.65,0,0,0,1.75-7.42,15.12,15.12,0,0,0-1.67-7.39,11.34,11.34,0,0,0-4.45-4.55,12.11,12.11,0,0,0-6-1.53,11.94,11.94,0,0,0-5.93,1.53,11,11,0,0,0-4.33,4.55,15.58,15.58,0,0,0-1.6,7.39q0,6.48,3.31,10a11,11,0,0,0,8.34,3.53,12.34,12.34,0,0,0,6-1.53"/><polygon class="cls-5" points="371.46 78 382.82 45.31 391.63 45.31 376.34 85.42 366.44 85.42 351.22 45.31 360.1 45.31 371.46 78"/><path class="cls-5" d="M434.36,68.46H403.71a11.11,11.11,0,0,0,3.57,7.72,11.24,11.24,0,0,0,7.86,2.91q6.71,0,9.47-5.61h8.95A18.08,18.08,0,0,1,427,82.55a19.35,19.35,0,0,1-11.83,3.53,20.41,20.41,0,0,1-10.3-2.59,18.45,18.45,0,0,1-7.14-7.28,22.24,22.24,0,0,1-2.58-10.88,22.75,22.75,0,0,1,2.51-10.88,17.68,17.68,0,0,1,7.06-7.25,21,21,0,0,1,10.45-2.55,20.42,20.42,0,0,1,10.12,2.48,17.53,17.53,0,0,1,6.92,6.95,21,21,0,0,1,2.47,10.3,26.42,26.42,0,0,1-.29,4.08M426,61.76a9.42,9.42,0,0,0-3.28-7.35,11.72,11.72,0,0,0-7.93-2.77,10.67,10.67,0,0,0-7.36,2.73,11.47,11.47,0,0,0-3.64,7.39Z"/><path class="cls-5" d="M456,46.36a14.3,14.3,0,0,1,7.17-1.71v8.59H461q-4.89,0-7.39,2.48t-2.52,8.59V85.42h-8.29V45.31h8.29v5.82A13.13,13.13,0,0,1,456,46.36"/><path class="cls-5" d="M476.84,84.37a14.89,14.89,0,0,1-5.93-4.66,11.54,11.54,0,0,1-2.33-6.59h8.59a5.81,5.81,0,0,0,2.44,4.26,8.85,8.85,0,0,0,5.57,1.71,9.36,9.36,0,0,0,5.42-1.35,4.08,4.08,0,0,0,1.93-3.46,3.56,3.56,0,0,0-2.15-3.35,41.49,41.49,0,0,0-6.81-2.4,63.72,63.72,0,0,1-7.35-2.4,12.93,12.93,0,0,1-4.91-3.57,9.31,9.31,0,0,1-2.08-6.33,9.87,9.87,0,0,1,1.89-5.86,12.66,12.66,0,0,1,5.43-4.19,20.24,20.24,0,0,1,8.12-1.53q6.84,0,11,3.46a12.41,12.41,0,0,1,4.47,9.43h-8.3a5.9,5.9,0,0,0-2.18-4.3,8.21,8.21,0,0,0-5.32-1.6,8.6,8.6,0,0,0-5,1.24,3.86,3.86,0,0,0-1.75,3.28,3.55,3.55,0,0,0,1.17,2.69,8.13,8.13,0,0,0,2.84,1.71q1.67.61,4.95,1.57a53.27,53.27,0,0,1,7.17,2.36A13.37,13.37,0,0,1,498.57,68a9.37,9.37,0,0,1,2.11,6.19,10.41,10.41,0,0,1-1.89,6.12,12.61,12.61,0,0,1-5.35,4.22,19.94,19.94,0,0,1-8.12,1.53,20.23,20.23,0,0,1-8.48-1.71"/><path class="cls-5" d="M546.11,68.46H515.46A11.11,11.11,0,0,0,519,76.18a11.26,11.26,0,0,0,7.86,2.91q6.71,0,9.47-5.61h8.95a18.08,18.08,0,0,1-6.59,9.07,19.35,19.35,0,0,1-11.83,3.53,20.41,20.41,0,0,1-10.3-2.59,18.36,18.36,0,0,1-7.13-7.28,22.13,22.13,0,0,1-2.59-10.88,22.75,22.75,0,0,1,2.51-10.88,17.68,17.68,0,0,1,7.06-7.25,21,21,0,0,1,10.45-2.55A20.42,20.42,0,0,1,537,47.13a17.53,17.53,0,0,1,6.92,6.95,21,21,0,0,1,2.47,10.3,25.23,25.23,0,0,1-.29,4.08m-8.37-6.7a9.42,9.42,0,0,0-3.28-7.35,11.72,11.72,0,0,0-7.93-2.77,10.63,10.63,0,0,0-7.35,2.73,11.44,11.44,0,0,0-3.65,7.39Z"/><polygon class="cls-5" points="374.46 135.64 387.44 135.64 387.44 138.59 370.84 138.59 370.84 102.43 374.46 102.43 374.46 135.64"/><path class="cls-5" d="M392.56,104.24a2.58,2.58,0,0,1-.77-1.91,2.5,2.5,0,0,1,.77-1.89,2.69,2.69,0,0,1,3.73,0,2.54,2.54,0,0,1,.77,1.89,2.62,2.62,0,0,1-.77,1.91,2.62,2.62,0,0,1-3.73,0m3.67,34.35h-3.62V110.35h3.62Z"/><path class="cls-5" d="M446.18,113q3.12,3.14,3.13,9.08v16.55h-3.57V122.45q0-4.61-2.23-7a7.8,7.8,0,0,0-6.05-2.44,8.17,8.17,0,0,0-6.36,2.64q-2.39,2.64-2.38,7.66v15.31h-3.57V122.45q0-4.61-2.22-7a7.89,7.89,0,0,0-6.11-2.44,8.19,8.19,0,0,0-6.36,2.64q-2.38,2.64-2.38,7.66v15.31h-3.62V110.35h3.62v4.86a9.17,9.17,0,0,1,3.83-4,11.28,11.28,0,0,1,5.53-1.37,11.67,11.67,0,0,1,6.44,1.76,9.91,9.91,0,0,1,4,5.17,9.55,9.55,0,0,1,3.91-5.15,11.4,11.4,0,0,1,6.28-1.78,11,11,0,0,1,8.1,3.13"/><path class="cls-5" d="M457.27,104.24a2.62,2.62,0,0,1-.77-1.91,2.54,2.54,0,0,1,.77-1.89,2.69,2.69,0,0,1,3.73,0,2.5,2.5,0,0,1,.77,1.89,2.58,2.58,0,0,1-.77,1.91,2.62,2.62,0,0,1-3.73,0M461,138.59h-3.62V110.35H461Z"/><path class="cls-5" d="M473.88,113.4v17.53c0,1.73.33,2.92,1,3.57a4.83,4.83,0,0,0,3.47,1h3.31v3.1h-3.88c-2.55,0-4.45-.6-5.69-1.78s-1.86-3.15-1.86-5.88V113.4h-3.94v-3.05h3.94v-7.09h3.67v7.09h7.76v3.05Z"/><path class="cls-5" d="M513,125.86H489.6a11.48,11.48,0,0,0,1.55,5.49,9.27,9.27,0,0,0,3.68,3.44,10.66,10.66,0,0,0,5,1.16,10,10,0,0,0,5.93-1.71,8,8,0,0,0,3.18-4.6h3.83a12,12,0,0,1-4.43,6.75,13.53,13.53,0,0,1-8.51,2.62,14.28,14.28,0,0,1-7.14-1.79,12.63,12.63,0,0,1-4.94-5.07,15.84,15.84,0,0,1-1.78-7.68,16.24,16.24,0,0,1,1.76-7.71,12.25,12.25,0,0,1,4.91-5.07,14.56,14.56,0,0,1,7.19-1.76,13.8,13.8,0,0,1,7.06,1.76,12.24,12.24,0,0,1,4.66,4.73,13.51,13.51,0,0,1,1.63,6.6c0,1.24,0,2.19-.1,2.84m-4.84-8.32a8.45,8.45,0,0,0-3.6-3.36,10.9,10.9,0,0,0-5-1.15,9.88,9.88,0,0,0-6.88,2.59,10.36,10.36,0,0,0-3.16,7.3h19.87a10,10,0,0,0-1.27-5.38"/><path class="cls-5" d="M519.87,116.79a12.56,12.56,0,0,1,4.83-5.07,13.61,13.61,0,0,1,7-1.79,12.88,12.88,0,0,1,6.73,1.81,11.08,11.08,0,0,1,4.39,4.71V100.31h3.62v38.28h-3.62v-6.31a10.88,10.88,0,0,1-4.24,4.84,12.64,12.64,0,0,1-6.93,1.89,13.44,13.44,0,0,1-7-1.82,12.52,12.52,0,0,1-4.81-5.12,16.22,16.22,0,0,1-1.73-7.65,15.83,15.83,0,0,1,1.76-7.63m21.52,1.68a10,10,0,0,0-3.81-4,10.27,10.27,0,0,0-5.3-1.4,10.82,10.82,0,0,0-5.38,1.34,9.56,9.56,0,0,0-3.75,3.91,12.75,12.75,0,0,0-1.37,6.08,12.91,12.91,0,0,0,1.37,6.07,9.65,9.65,0,0,0,3.75,4,10.63,10.63,0,0,0,5.38,1.37,10.37,10.37,0,0,0,5.3-1.4,10,10,0,0,0,3.81-4,13.64,13.64,0,0,0,0-12"/></g></g></svg>